<mxfile host="app.diagrams.net" agent="Mozilla/5.0 (Windows NT 10.0; Win64; x64) AppleWebKit/537.36 (KHTML, like Gecko) Chrome/135.0.0.0 Safari/537.36" version="26.2.14">
  <diagram name="Page-1" id="sc-cOYgzrFf0ieOYY7vz">
    <mxGraphModel>
      <root>
        <mxCell id="0" />
        <mxCell id="1" parent="0" />
        <mxCell id="2" value="User" style="whiteSpace=wrap;strokeWidth=2;" vertex="1" parent="1">
          <mxGeometry x="1128" y="8" width="92" height="54" as="geometry" />
        </mxCell>
        <mxCell id="3" value="Clerk Authentication" style="whiteSpace=wrap;strokeWidth=2;" vertex="1" parent="1">
          <mxGeometry x="1071" y="134" width="207" height="54" as="geometry" />
        </mxCell>
        <mxCell id="4" value="Dashboard" style="whiteSpace=wrap;strokeWidth=2;" vertex="1" parent="1">
          <mxGeometry x="1107" y="238" width="134" height="54" as="geometry" />
        </mxCell>
        <mxCell id="5" value="Create Project Page" style="whiteSpace=wrap;strokeWidth=2;" vertex="1" parent="1">
          <mxGeometry x="363" y="365" width="203" height="54" as="geometry" />
        </mxCell>
        <mxCell id="6" value="GitHub Name Field" style="whiteSpace=wrap;strokeWidth=2;" vertex="1" parent="1">
          <mxGeometry x="8" y="491" width="195" height="54" as="geometry" />
        </mxCell>
        <mxCell id="7" value="GitHub URL Field" style="whiteSpace=wrap;strokeWidth=2;" vertex="1" parent="1">
          <mxGeometry x="253" y="491" width="182" height="54" as="geometry" />
        </mxCell>
        <mxCell id="8" value="GitHub Token Field" style="whiteSpace=wrap;strokeWidth=2;" vertex="1" parent="1">
          <mxGeometry x="485" y="491" width="196" height="54" as="geometry" />
        </mxCell>
        <mxCell id="9" value="Credits Check" style="whiteSpace=wrap;strokeWidth=2;" vertex="1" parent="1">
          <mxGeometry x="731" y="491" width="159" height="54" as="geometry" />
        </mxCell>
        <mxCell id="10" value="Project Creation" style="whiteSpace=wrap;strokeWidth=2;" vertex="1" parent="1">
          <mxGeometry x="849" y="635" width="178" height="54" as="geometry" />
        </mxCell>
        <mxCell id="11" value="Billing Page" style="whiteSpace=wrap;strokeWidth=2;" vertex="1" parent="1">
          <mxGeometry x="612" y="635" width="143" height="54" as="geometry" />
        </mxCell>
        <mxCell id="12" value="Stripe Payment Gateway" style="whiteSpace=wrap;strokeWidth=2;" vertex="1" parent="1">
          <mxGeometry x="565" y="762" width="236" height="54" as="geometry" />
        </mxCell>
        <mxCell id="13" value="Project Created" style="whiteSpace=wrap;strokeWidth=2;" vertex="1" parent="1">
          <mxGeometry x="851" y="762" width="174" height="54" as="geometry" />
        </mxCell>
        <mxCell id="14" value="GenLan Summarization" style="whiteSpace=wrap;strokeWidth=2;" vertex="1" parent="1">
          <mxGeometry x="689" y="888" width="225" height="54" as="geometry" />
        </mxCell>
        <mxCell id="15" value="LanChain" style="whiteSpace=wrap;strokeWidth=2;" vertex="1" parent="1">
          <mxGeometry x="739" y="1014" width="125" height="54" as="geometry" />
        </mxCell>
        <mxCell id="16" value="Q&amp;A Feature" style="whiteSpace=wrap;strokeWidth=2;" vertex="1" parent="1">
          <mxGeometry x="726" y="1141" width="151" height="54" as="geometry" />
        </mxCell>
        <mxCell id="17" value="Save Questions &amp; Answers" style="whiteSpace=wrap;strokeWidth=2;" vertex="1" parent="1">
          <mxGeometry x="679" y="1245" width="245" height="54" as="geometry" />
        </mxCell>
        <mxCell id="18" value="File Recommendations" style="whiteSpace=wrap;strokeWidth=2;" vertex="1" parent="1">
          <mxGeometry x="964" y="888" width="221" height="54" as="geometry" />
        </mxCell>
        <mxCell id="19" value="Meetings Page" style="whiteSpace=wrap;strokeWidth=2;" vertex="1" parent="1">
          <mxGeometry x="1192" y="365" width="161" height="54" as="geometry" />
        </mxCell>
        <mxCell id="20" value="AssemblyAI Summary" style="whiteSpace=wrap;strokeWidth=2;" vertex="1" parent="1">
          <mxGeometry x="1167" y="491" width="210" height="54" as="geometry" />
        </mxCell>
        <mxCell id="21" value="NeonDB Database" style="whiteSpace=wrap;strokeWidth=2;" vertex="1" parent="1">
          <mxGeometry x="1179" y="635" width="185" height="54" as="geometry" />
        </mxCell>
        <mxCell id="22" value="Billing Page" style="whiteSpace=wrap;strokeWidth=2;" vertex="1" parent="1">
          <mxGeometry x="1459" y="365" width="143" height="54" as="geometry" />
        </mxCell>
        <mxCell id="23" value="Credits Management" style="whiteSpace=wrap;strokeWidth=2;" vertex="1" parent="1">
          <mxGeometry x="1427" y="491" width="206" height="54" as="geometry" />
        </mxCell>
        <mxCell id="24" value="" style="whiteSpace=wrap;strokeWidth=2;" vertex="1" parent="1">
          <mxGeometry x="1229" y="789" as="geometry" />
        </mxCell>
        <mxCell id="25" value="" style="whiteSpace=wrap;strokeWidth=2;" vertex="1" parent="1">
          <mxGeometry x="1272" y="915" as="geometry" />
        </mxCell>
        <mxCell id="26" value="Authenticates" style="curved=1;startArrow=none;endArrow=block;exitX=0.5;exitY=1;entryX=0.5;entryY=0.01;" edge="1" parent="1" source="2" target="3">
          <mxGeometry relative="1" as="geometry">
            <Array as="points" />
          </mxGeometry>
        </mxCell>
        <mxCell id="27" value="" style="curved=1;startArrow=none;endArrow=block;exitX=0.5;exitY=1.01;entryX=0.5;entryY=0.01;" edge="1" parent="1" source="3" target="4">
          <mxGeometry relative="1" as="geometry">
            <Array as="points" />
          </mxGeometry>
        </mxCell>
        <mxCell id="28" value="Creates Project" style="curved=1;startArrow=none;endArrow=block;exitX=0;exitY=0.62;entryX=0.5;entryY=0;" edge="1" parent="1" source="4" target="5">
          <mxGeometry relative="1" as="geometry">
            <Array as="points">
              <mxPoint x="464" y="329" />
            </Array>
          </mxGeometry>
        </mxCell>
        <mxCell id="29" value="GitHub Name" style="curved=1;startArrow=none;endArrow=block;exitX=0;exitY=0.83;entryX=0.5;entryY=0;" edge="1" parent="1" source="5" target="6">
          <mxGeometry relative="1" as="geometry">
            <Array as="points">
              <mxPoint x="106" y="455" />
            </Array>
          </mxGeometry>
        </mxCell>
        <mxCell id="30" value="GitHub URL" style="curved=1;startArrow=none;endArrow=block;exitX=0.25;exitY=1;entryX=0.5;entryY=0;" edge="1" parent="1" source="5" target="7">
          <mxGeometry relative="1" as="geometry">
            <Array as="points">
              <mxPoint x="344" y="455" />
            </Array>
          </mxGeometry>
        </mxCell>
        <mxCell id="31" value="GitHub Token" style="curved=1;startArrow=none;endArrow=block;exitX=0.75;exitY=1;entryX=0.5;entryY=0;" edge="1" parent="1" source="5" target="8">
          <mxGeometry relative="1" as="geometry">
            <Array as="points">
              <mxPoint x="583" y="455" />
            </Array>
          </mxGeometry>
        </mxCell>
        <mxCell id="32" value="Credits Check" style="curved=1;startArrow=none;endArrow=block;exitX=1;exitY=0.84;entryX=0.5;entryY=0;" edge="1" parent="1" source="5" target="9">
          <mxGeometry relative="1" as="geometry">
            <Array as="points">
              <mxPoint x="811" y="455" />
            </Array>
          </mxGeometry>
        </mxCell>
        <mxCell id="33" value="Credits Sufficient?" style="curved=1;startArrow=none;endArrow=block;exitX=0.8;exitY=1;entryX=0.5;entryY=0;" edge="1" parent="1" source="9" target="10">
          <mxGeometry relative="1" as="geometry">
            <Array as="points">
              <mxPoint x="938" y="590" />
            </Array>
          </mxGeometry>
        </mxCell>
        <mxCell id="34" value="Credits Insufficient" style="curved=1;startArrow=none;endArrow=block;exitX=0.2;exitY=1;entryX=0.5;entryY=0;" edge="1" parent="1" source="9" target="11">
          <mxGeometry relative="1" as="geometry">
            <Array as="points">
              <mxPoint x="683" y="590" />
            </Array>
          </mxGeometry>
        </mxCell>
        <mxCell id="35" value="Buys Credits" style="curved=1;startArrow=none;endArrow=block;exitX=0.5;exitY=1;entryX=0.5;entryY=-0.01;" edge="1" parent="1" source="11" target="12">
          <mxGeometry relative="1" as="geometry">
            <Array as="points" />
          </mxGeometry>
        </mxCell>
        <mxCell id="36" value="" style="curved=1;startArrow=none;endArrow=block;exitX=0.5;exitY=1;entryX=0.5;entryY=-0.01;" edge="1" parent="1" source="10" target="13">
          <mxGeometry relative="1" as="geometry">
            <Array as="points" />
          </mxGeometry>
        </mxCell>
        <mxCell id="37" value="Summarizes Commits" style="curved=1;startArrow=none;endArrow=block;exitX=0.17;exitY=0.99;entryX=0.5;entryY=0;" edge="1" parent="1" source="13" target="14">
          <mxGeometry relative="1" as="geometry">
            <Array as="points">
              <mxPoint x="802" y="852" />
            </Array>
          </mxGeometry>
        </mxCell>
        <mxCell id="38" value="Generates Embeddings" style="curved=1;startArrow=none;endArrow=block;exitX=0.5;exitY=1;entryX=0.5;entryY=0.01;" edge="1" parent="1" source="14" target="15">
          <mxGeometry relative="1" as="geometry">
            <Array as="points" />
          </mxGeometry>
        </mxCell>
        <mxCell id="39" value="Answers User Queries" style="curved=1;startArrow=none;endArrow=block;exitX=0.5;exitY=1.01;entryX=0.5;entryY=0;" edge="1" parent="1" source="15" target="16">
          <mxGeometry relative="1" as="geometry">
            <Array as="points" />
          </mxGeometry>
        </mxCell>
        <mxCell id="40" value="" style="curved=1;startArrow=none;endArrow=block;exitX=0.5;exitY=1;entryX=0.5;entryY=0;" edge="1" parent="1" source="16" target="17">
          <mxGeometry relative="1" as="geometry">
            <Array as="points" />
          </mxGeometry>
        </mxCell>
        <mxCell id="41" value="Shows Editable Files" style="curved=1;startArrow=none;endArrow=block;exitX=0.84;exitY=0.99;entryX=0.5;entryY=0;" edge="1" parent="1" source="13" target="18">
          <mxGeometry relative="1" as="geometry">
            <Array as="points">
              <mxPoint x="1075" y="852" />
            </Array>
          </mxGeometry>
        </mxCell>
        <mxCell id="42" value="Drag &amp; Drop MP3" style="curved=1;startArrow=none;endArrow=block;exitX=0.81;exitY=1.01;entryX=0.5;entryY=0;" edge="1" parent="1" source="4" target="19">
          <mxGeometry relative="1" as="geometry">
            <Array as="points">
              <mxPoint x="1272" y="329" />
            </Array>
          </mxGeometry>
        </mxCell>
        <mxCell id="43" value="Summarizes Meetings" style="curved=1;startArrow=none;endArrow=block;exitX=0.5;exitY=1;entryX=0.5;entryY=0;" edge="1" parent="1" source="19" target="20">
          <mxGeometry relative="1" as="geometry">
            <Array as="points" />
          </mxGeometry>
        </mxCell>
        <mxCell id="44" value="Stores Summaries in Database" style="curved=1;startArrow=none;endArrow=block;exitX=0.5;exitY=1;entryX=0.5;entryY=0;" edge="1" parent="1" source="20" target="21">
          <mxGeometry relative="1" as="geometry">
            <Array as="points" />
          </mxGeometry>
        </mxCell>
        <mxCell id="45" value="Navigates to" style="curved=1;startArrow=none;endArrow=block;exitX=1;exitY=0.73;entryX=0.5;entryY=0;" edge="1" parent="1" source="4" target="22">
          <mxGeometry relative="1" as="geometry">
            <Array as="points">
              <mxPoint x="1530" y="329" />
            </Array>
          </mxGeometry>
        </mxCell>
        <mxCell id="46" value="Manages Credits" style="curved=1;startArrow=none;endArrow=block;exitX=0.5;exitY=1;entryX=0.5;entryY=0;" edge="1" parent="1" source="22" target="23">
          <mxGeometry relative="1" as="geometry">
            <Array as="points" />
          </mxGeometry>
        </mxCell>
        <mxCell id="47" value="" style="curved=1;startArrow=none;endArrow=none;exitX=0.4;exitY=1;entryX=Infinity;entryY=-Infinity;" edge="1" parent="1" source="21" target="24">
          <mxGeometry relative="1" as="geometry">
            <Array as="points">
              <mxPoint x="1229" y="725" />
            </Array>
          </mxGeometry>
        </mxCell>
        <mxCell id="48" value="Stores All Data" style="curved=1;startArrow=none;endArrow=none;exitX=Infinity;exitY=-Infinity;entryX=Infinity;entryY=-Infinity;" edge="1" parent="1" source="24" target="25">
          <mxGeometry relative="1" as="geometry">
            <Array as="points">
              <mxPoint x="1229" y="852" />
            </Array>
          </mxGeometry>
        </mxCell>
        <mxCell id="49" value="" style="curved=1;startArrow=none;endArrow=block;exitX=Infinity;exitY=-Infinity;entryX=0.59;entryY=1;" edge="1" parent="1" source="25" target="21">
          <mxGeometry relative="1" as="geometry">
            <Array as="points">
              <mxPoint x="1309" y="852" />
              <mxPoint x="1309" y="725" />
            </Array>
          </mxGeometry>
        </mxCell>
      </root>
    </mxGraphModel>
  </diagram>
</mxfile>
